<svg width="123" height="44" viewBox="0 0 123 44" fill="none" xmlns="http://www.w3.org/2000/svg">
<path d="M31 26V18C30.9996 17.6493 30.9071 17.3048 30.7315 17.0012C30.556 16.6975 30.3037 16.4454 30 16.27L23 12.27C22.696 12.0945 22.3511 12.0021 22 12.0021C21.6489 12.0021 21.304 12.0945 21 12.27L14 16.27C13.6963 16.4454 13.444 16.6975 13.2685 17.0012C13.0929 17.3048 13.0004 17.6493 13 18V26C13.0004 26.3508 13.0929 26.6952 13.2685 26.9989C13.444 27.3025 13.6963 27.5547 14 27.73L21 31.73C21.304 31.9056 21.6489 31.998 22 31.998C22.3511 31.998 22.696 31.9056 23 31.73L30 27.73C30.3037 27.5547 30.556 27.3025 30.7315 26.9989C30.9071 26.6952 30.9996 26.3508 31 26Z" stroke="white" stroke-width="2" stroke-linecap="round" stroke-linejoin="round"/>
<path d="M13.27 16.96L22 22.01L30.73 16.96" stroke="white" stroke-width="2" stroke-linecap="round" stroke-linejoin="round"/>
<path d="M22 32.08V22" stroke="white" stroke-width="2" stroke-linecap="round" stroke-linejoin="round"/>
<path d="M45.5455 27.5V15.8636H52.2784V16.8182H46.608V21.1989H51.75V22.1534H46.608V27.5H45.5455ZM54.6165 27.5V18.7727H55.5994V20.1136H55.6733C55.8475 19.6742 56.1506 19.3201 56.5824 19.0511C57.018 18.7784 57.5104 18.642 58.0597 18.642C58.143 18.642 58.2358 18.6439 58.3381 18.6477C58.4403 18.6515 58.5256 18.6553 58.5938 18.6591V19.6875C58.5483 19.6799 58.4688 19.6686 58.3551 19.6534C58.2415 19.6383 58.1184 19.6307 57.9858 19.6307C57.5313 19.6307 57.1259 19.7273 56.7699 19.9205C56.4176 20.1098 56.1392 20.3731 55.9347 20.7102C55.7301 21.0473 55.6278 21.4318 55.6278 21.8636V27.5H54.6165ZM63.5824 27.6818C62.768 27.6818 62.0634 27.4924 61.4688 27.1136C60.8741 26.7311 60.4138 26.2027 60.0881 25.5284C59.7661 24.8504 59.6051 24.0701 59.6051 23.1875C59.6051 22.3087 59.7661 21.5284 60.0881 20.8466C60.4138 20.161 60.8627 19.625 61.4347 19.2386C62.0104 18.8485 62.6752 18.6534 63.429 18.6534C63.9025 18.6534 64.3589 18.7405 64.7983 18.9148C65.2377 19.0852 65.6316 19.3485 65.9801 19.7045C66.3324 20.0568 66.6108 20.5019 66.8153 21.0398C67.0199 21.5739 67.1222 22.2064 67.1222 22.9375V23.4375H60.304V22.5455H66.0881C66.0881 21.9848 65.9744 21.4811 65.7472 21.0341C65.5237 20.5833 65.2112 20.2273 64.8097 19.9659C64.4119 19.7045 63.9517 19.5739 63.429 19.5739C62.8759 19.5739 62.3892 19.7216 61.9688 20.017C61.5483 20.3125 61.2188 20.7027 60.9801 21.1875C60.7453 21.6723 60.6259 22.2027 60.6222 22.7784V23.3125C60.6222 24.0057 60.7415 24.6117 60.9801 25.1307C61.2225 25.6458 61.5653 26.0455 62.0085 26.3295C62.4517 26.6136 62.9763 26.7557 63.5824 26.7557C63.9953 26.7557 64.357 26.6913 64.6676 26.5625C64.982 26.4337 65.2453 26.2614 65.4574 26.0455C65.6733 25.8258 65.8362 25.5852 65.946 25.3239L66.9062 25.6364C66.7737 26.0038 66.5559 26.3428 66.2528 26.6534C65.9536 26.964 65.5786 27.214 65.1278 27.4034C64.6809 27.589 64.1657 27.6818 63.5824 27.6818ZM72.7884 18.7727V19.6534H68.6236V18.7727H72.7884ZM69.9247 16.6818H70.9418V25.2216C70.9418 25.5852 71.0043 25.8712 71.1293 26.0795C71.2543 26.2841 71.4171 26.4299 71.6179 26.517C71.8187 26.6004 72.0327 26.642 72.2599 26.642C72.3925 26.642 72.5062 26.6345 72.6009 26.6193C72.6955 26.6004 72.7789 26.5814 72.8509 26.5625L73.0668 27.4773C72.9683 27.5152 72.8471 27.5492 72.7031 27.5795C72.5592 27.6136 72.3812 27.6307 72.169 27.6307C71.7978 27.6307 71.4399 27.5492 71.0952 27.3864C70.7543 27.2235 70.474 26.9811 70.2543 26.6591C70.0346 26.3371 69.9247 25.9375 69.9247 25.4602V16.6818ZM78.5199 27.6818C77.7055 27.6818 77.0009 27.4924 76.4062 27.1136C75.8116 26.7311 75.3513 26.2027 75.0256 25.5284C74.7036 24.8504 74.5426 24.0701 74.5426 23.1875C74.5426 22.3087 74.7036 21.5284 75.0256 20.8466C75.3513 20.161 75.8002 19.625 76.3722 19.2386C76.9479 18.8485 77.6127 18.6534 78.3665 18.6534C78.84 18.6534 79.2964 18.7405 79.7358 18.9148C80.1752 19.0852 80.5691 19.3485 80.9176 19.7045C81.2699 20.0568 81.5483 20.5019 81.7528 21.0398C81.9574 21.5739 82.0597 22.2064 82.0597 22.9375V23.4375H75.2415V22.5455H81.0256C81.0256 21.9848 80.9119 21.4811 80.6847 21.0341C80.4612 20.5833 80.1487 20.2273 79.7472 19.9659C79.3494 19.7045 78.8892 19.5739 78.3665 19.5739C77.8134 19.5739 77.3267 19.7216 76.9062 20.017C76.4858 20.3125 76.1563 20.7027 75.9176 21.1875C75.6828 21.6723 75.5634 22.2027 75.5597 22.7784V23.3125C75.5597 24.0057 75.679 24.6117 75.9176 25.1307C76.16 25.6458 76.5028 26.0455 76.946 26.3295C77.3892 26.6136 77.9138 26.7557 78.5199 26.7557C78.9328 26.7557 79.2945 26.6913 79.6051 26.5625C79.9195 26.4337 80.1828 26.2614 80.3949 26.0455C80.6108 25.8258 80.7737 25.5852 80.8835 25.3239L81.8438 25.6364C81.7112 26.0038 81.4934 26.3428 81.1903 26.6534C80.8911 26.964 80.5161 27.214 80.0653 27.4034C79.6184 27.589 79.1032 27.6818 78.5199 27.6818ZM83.9645 27.5V15.8636H88.6236C89.4796 15.8636 90.1937 15.9905 90.7656 16.2443C91.3376 16.4981 91.7675 16.8504 92.0554 17.3011C92.3433 17.7481 92.4872 18.2633 92.4872 18.8466C92.4872 19.3011 92.3963 19.7008 92.2145 20.0455C92.0327 20.3864 91.7827 20.6667 91.4645 20.8864C91.1501 21.1023 90.7902 21.2557 90.3849 21.3466V21.4602C90.8281 21.4792 91.2429 21.6042 91.6293 21.8352C92.0194 22.0663 92.3357 22.3902 92.5781 22.8068C92.8205 23.2197 92.9418 23.7121 92.9418 24.2841C92.9418 24.9015 92.7884 25.4527 92.4815 25.9375C92.1785 26.4186 91.7296 26.7992 91.1349 27.0795C90.5402 27.3598 89.8073 27.5 88.9361 27.5H83.9645ZM86.4247 25.4886H88.4304C89.116 25.4886 89.616 25.358 89.9304 25.0966C90.2448 24.8314 90.402 24.4792 90.402 24.0398C90.402 23.7178 90.3243 23.4337 90.169 23.1875C90.0137 22.9413 89.7921 22.7481 89.5043 22.608C89.2202 22.4678 88.8812 22.3977 88.4872 22.3977H86.4247V25.4886ZM86.4247 20.733H88.2486C88.5857 20.733 88.8849 20.6742 89.1463 20.5568C89.4115 20.4356 89.6198 20.2652 89.7713 20.0455C89.9266 19.8258 90.0043 19.5625 90.0043 19.2557C90.0043 18.8352 89.8546 18.4962 89.5554 18.2386C89.2599 17.9811 88.8395 17.8523 88.294 17.8523H86.4247V20.733ZM98.4403 27.6705C97.5578 27.6705 96.7945 27.483 96.1506 27.108C95.5104 26.7292 95.0161 26.2027 94.6676 25.5284C94.3191 24.8504 94.1449 24.0644 94.1449 23.1705C94.1449 22.2689 94.3191 21.4811 94.6676 20.8068C95.0161 20.1288 95.5104 19.6023 96.1506 19.2273C96.7945 18.8485 97.5578 18.6591 98.4403 18.6591C99.3229 18.6591 100.084 18.8485 100.724 19.2273C101.368 19.6023 101.865 20.1288 102.213 20.8068C102.562 21.4811 102.736 22.2689 102.736 23.1705C102.736 24.0644 102.562 24.8504 102.213 25.5284C101.865 26.2027 101.368 26.7292 100.724 27.108C100.084 27.483 99.3229 27.6705 98.4403 27.6705ZM98.4517 25.7955C98.8532 25.7955 99.1884 25.6818 99.4574 25.4545C99.7263 25.2235 99.929 24.9091 100.065 24.5114C100.205 24.1136 100.276 23.661 100.276 23.1534C100.276 22.6458 100.205 22.1932 100.065 21.7955C99.929 21.3977 99.7263 21.0833 99.4574 20.8523C99.1884 20.6212 98.8532 20.5057 98.4517 20.5057C98.0464 20.5057 97.7055 20.6212 97.429 20.8523C97.1563 21.0833 96.9498 21.3977 96.8097 21.7955C96.6733 22.1932 96.6051 22.6458 96.6051 23.1534C96.6051 23.661 96.6733 24.1136 96.8097 24.5114C96.9498 24.9091 97.1563 25.2235 97.429 25.4545C97.7055 25.6818 98.0464 25.7955 98.4517 25.7955ZM106.02 18.7727L107.622 21.8239L109.264 18.7727H111.747L109.219 23.1364L111.815 27.5H109.344L107.622 24.483L105.929 27.5H103.429L106.02 23.1364L103.52 18.7727H106.02Z" fill="white"/>
</svg>
